<?xml version="1.0" standalone="no"?>
<!DOCTYPE svg PUBLIC "-//W3C//DTD SVG 20010904//EN"
 "http://www.w3.org/TR/2001/REC-SVG-20010904/DTD/svg10.dtd">
<svg version="1.0" xmlns="http://www.w3.org/2000/svg"
 width="600.000000pt" height="600.000000pt" viewBox="0 0 600.000000 600.000000"
 preserveAspectRatio="xMidYMid meet">
<metadata>
Created by potrace 1.14, written by Peter Selinger 2001-2017
</metadata>
<g transform="translate(0.000000,600.000000) scale(0.100000,-0.100000)"
fill="#000000" stroke="none">
<path d="M200 3000 l0 -2800 2800 0 2800 0 0 2800 0 2800 -2800 0 -2800 0 0
-2800z m4425 2112 c404 -87 645 -349 719 -782 9 -52 19 -155 23 -227 l6 -133
-330 0 -330 0 -6 108 c-13 241 -69 357 -205 424 -64 32 -71 33 -187 33 -112 0
-124 -2 -172 -27 -75 -40 -115 -79 -151 -145 -45 -85 -62 -162 -69 -308 -11
-240 23 -382 111 -470 68 -67 119 -93 470 -235 335 -136 429 -180 534 -253
276 -190 375 -499 359 -1112 -6 -233 -15 -309 -48 -444 -83 -334 -303 -545
-663 -636 -312 -79 -693 -53 -944 65 -267 125 -422 332 -483 642 -15 77 -38
322 -39 411 0 16 23 17 335 17 l335 0 0 -90 c0 -223 76 -388 206 -450 70 -32
139 -43 255 -38 96 4 114 8 173 37 109 53 167 139 199 291 16 77 15 456 -2
548 -27 149 -106 260 -237 329 -33 17 -202 90 -377 162 -175 72 -342 143 -370
157 -338 171 -457 399 -474 909 -6 202 5 336 42 481 105 415 407 685 840 754
95 14 376 4 480 -18z m-2685 -22 c226 -35 391 -106 514 -221 163 -152 240
-306 277 -554 21 -138 18 -516 -5 -630 -48 -242 -177 -435 -366 -547 l-62 -36
74 -43 c144 -84 268 -238 322 -399 49 -151 60 -251 61 -555 0 -291 -8 -390
-46 -540 -74 -290 -269 -503 -544 -594 -191 -62 -218 -64 -912 -69 l-633 -3 0
2106 0 2107 623 -5 c400 -3 649 -9 697 -17z"/>
<path d="M1280 3940 l0 -570 208 0 c231 0 311 12 393 56 92 50 144 126 181
262 28 102 30 390 5 495 -33 133 -97 226 -191 274 -76 39 -177 52 -398 53
l-198 0 0 -570z"/>
<path d="M1280 2155 l0 -655 213 0 c233 0 304 11 389 57 98 53 161 155 195
314 24 115 24 449 -1 559 -22 101 -74 206 -126 258 -96 96 -197 121 -482 122
l-188 0 0 -655z"/>
</g>
</svg>
