<svg width="72" height="72" viewBox="0 0 72 72" fill="none" xmlns="http://www.w3.org/2000/svg">
<path d="M2 17.5342L11.7372 22M17.499 2L21.8248 11.8598M9.443 9.5132L16.676 16.746" stroke="white" stroke-width="4" stroke-linecap="round" stroke-linejoin="round"/>
<path d="M69.0234 53.666L59.2862 49.2002M53.5244 69.2002L49.1986 59.3404M61.5804 61.687L54.3474 54.4542" stroke="white" stroke-width="4" stroke-linecap="round" stroke-linejoin="round"/>
<path d="M19.1266 28.415L8.33895 39.2216C2.39235 45.1682 2.58295 55.0218 8.75815 61.197L8.81535 61.2542C15.0096 67.4294 24.8442 67.601 30.7908 61.6354L41.5594 50.8288M50.9556 41.585L61.7242 30.7784C67.6708 24.8318 67.4802 14.9782 61.305 8.80296L61.2477 8.74576C55.0535 2.57056 45.219 2.39896 39.2724 8.36456L28.5038 19.1712" stroke="white" stroke-width="4" stroke-linecap="round" stroke-linejoin="round"/>
<path d="M24 46L46 24" stroke="white" stroke-width="4" stroke-linecap="round" stroke-linejoin="round"/>
</svg>
