<svg width="276" height="143" viewBox="0 0 276 143" fill="none" xmlns="http://www.w3.org/2000/svg">
<path d="M275.473 3.36828C275.676 2.00263 274.734 0.730669 273.368 0.527275C272.003 0.32388 270.731 1.26607 270.527 2.63172L275.473 3.36828ZM0 122L20.2047 142.618L27.9581 114.811L0 122ZM6.71501 126.426C8.3444 126.857 9.96487 127.277 11.5764 127.685L12.8041 122.838C11.21 122.435 9.60676 122.019 7.99447 121.593L6.71501 126.426ZM16.3845 128.876C18.0446 129.277 19.695 129.666 21.3359 130.043L22.455 125.17C20.8329 124.797 19.2011 124.412 17.5595 124.016L16.3845 128.876ZM26.2837 131.148C27.9232 131.505 29.5531 131.848 31.1732 132.18L32.1761 127.282C30.5756 126.954 28.9654 126.614 27.3452 126.262L26.2837 131.148ZM36.069 133.151C37.754 133.475 39.4284 133.785 41.0922 134.082L41.9706 129.159C40.3283 128.866 38.6753 128.56 37.0114 128.241L36.069 133.151ZM46.0517 134.933C47.6944 135.204 49.3264 135.462 50.948 135.707L51.695 130.763C50.0957 130.521 48.4857 130.267 46.865 130L46.0517 134.933ZM56.0073 136.434C57.6906 136.664 59.3622 136.88 61.0224 137.082L61.6263 132.118C59.9904 131.919 58.3429 131.707 56.6835 131.48L56.0073 136.434ZM65.9687 137.646C67.6662 137.827 69.3515 137.994 71.0246 138.146L71.4771 133.166C69.8302 133.017 68.1708 132.853 66.4989 132.675L65.9687 137.646ZM76.0773 138.564C77.749 138.689 79.4082 138.8 81.0551 138.895L81.3459 133.904C79.7265 133.81 78.0944 133.701 76.4496 133.578L76.0773 138.564ZM86.1266 139.148C87.8296 139.217 89.5191 139.272 91.1951 139.311L91.3116 134.312C89.6654 134.274 88.0054 134.22 86.3316 134.152L86.1266 139.148ZM96.1825 139.383C97.8964 139.392 99.5957 139.385 101.281 139.362L101.212 134.362C99.5593 134.385 97.8916 134.392 96.2092 134.383L96.1825 139.383ZM106.339 139.244C108.015 139.188 109.676 139.117 111.322 139.03L111.058 134.037C109.445 134.122 107.817 134.192 106.174 134.246L106.339 139.244ZM116.437 138.705C118.126 138.58 119.799 138.439 121.456 138.281L120.982 133.303C119.36 133.458 117.722 133.597 116.068 133.719L116.437 138.705ZM126.477 137.746C128.177 137.546 129.86 137.329 131.526 137.094L130.829 132.143C129.201 132.372 127.556 132.585 125.893 132.781L126.477 137.746ZM136.474 136.34C138.172 136.06 139.851 135.763 141.513 135.448L140.582 130.536C138.96 130.843 137.321 131.133 135.663 131.406L136.474 136.34ZM146.461 134.447C148.127 134.089 149.774 133.712 151.402 133.318L150.227 128.459C148.64 128.843 147.034 129.21 145.409 129.559L146.461 134.447ZM156.327 132.059C157.962 131.618 159.577 131.158 161.173 130.682L159.743 125.891C158.189 126.355 156.616 126.802 155.024 127.231L156.327 132.059ZM166.048 129.153C167.652 128.625 169.236 128.079 170.8 127.516L169.106 122.812C167.586 123.359 166.046 123.89 164.486 124.403L166.048 129.153ZM175.594 125.712C177.172 125.092 178.728 124.454 180.262 123.798L178.299 119.2C176.809 119.836 175.298 120.456 173.765 121.058L175.594 125.712ZM184.93 121.723C186.471 121.009 187.99 120.278 189.487 119.529L187.251 115.057C185.799 115.783 184.326 116.493 182.83 117.185L184.93 121.723ZM194.015 117.178C195.511 116.371 196.984 115.547 198.434 114.707L195.926 110.381C194.521 111.196 193.093 111.995 191.642 112.777L194.015 117.178ZM202.806 112.079C204.25 111.18 205.668 110.265 207.063 109.334L204.287 105.175C202.936 106.077 201.562 106.964 200.163 107.835L202.806 112.079ZM211.262 106.433C212.644 105.445 214 104.441 215.332 103.423L212.295 99.4511C211.006 100.437 209.692 101.408 208.354 102.365L211.262 106.433ZM219.34 100.255C220.655 99.181 221.943 98.0925 223.206 96.9908L219.92 93.2228C218.697 94.2894 217.449 95.3433 216.176 96.3835L219.34 100.255ZM227.002 93.5697C228.248 92.41 229.466 91.2377 230.658 90.0537L227.135 86.5063C225.98 87.6526 224.801 88.7877 223.595 89.9105L227.002 93.5697ZM234.215 86.4046C235.386 85.1642 236.529 83.9127 237.645 82.6515L233.9 79.3384C232.819 80.5598 231.712 81.7717 230.579 82.9729L234.215 86.4046ZM240.949 78.7941C242.04 77.4777 243.103 76.1524 244.139 74.8195L240.19 71.7526C239.187 73.0438 238.157 74.3276 237.1 75.6025L240.949 78.7941ZM247.181 70.7715C248.189 69.3858 249.167 67.9934 250.117 66.596L245.982 63.7852C245.062 65.1393 244.113 66.4883 243.137 67.8309L247.181 70.7715ZM252.906 62.3505C253.82 60.9107 254.705 59.4672 255.56 58.0214L251.257 55.4754C250.428 56.8767 249.571 58.2757 248.685 59.671L252.906 62.3505ZM258.087 53.5941C258.908 52.1008 259.699 50.6069 260.461 49.1141L256.007 46.842C255.269 48.2889 254.502 49.7369 253.706 51.1842L258.087 53.5941ZM262.702 44.5442C263.433 42.9934 264.132 41.4455 264.801 39.9026L260.213 37.9149C259.565 39.4099 258.888 40.9099 258.179 42.4129L262.702 44.5442ZM266.742 35.2196C267.375 33.6238 267.974 32.0354 268.541 30.4566L263.836 28.7657C263.287 30.2941 262.706 31.8323 262.094 33.3781L266.742 35.2196ZM270.188 25.6279C270.715 23.993 271.208 22.3711 271.668 20.7647L266.86 19.3903C266.416 20.9427 265.94 22.511 265.429 24.0926L270.188 25.6279ZM272.976 15.8708C273.395 14.1846 273.777 12.5192 274.122 10.8775L269.229 9.84968C268.897 11.4309 268.529 13.0367 268.124 14.6639L272.976 15.8708ZM275.077 5.85152C275.219 5.01623 275.351 4.18833 275.473 3.36828L270.527 2.63172C270.41 3.41811 270.284 4.2127 270.147 5.01505L275.077 5.85152Z" fill="#F60C51"/>
</svg>
