<svg width="69" height="69" viewBox="0 0 69 69" fill="none" xmlns="http://www.w3.org/2000/svg">
<g clip-path="url(#clip0_1_137)">
<path d="M4.01657 19.9004L4.09944 28.2048L34.5829 36L64.9116 28.0277L64.9945 19.8893M65 19.8893L34.5 12L4 19.8893L34.5 27.7786L65 19.8893Z" stroke="white" stroke-width="3" stroke-miterlimit="3.6" stroke-linecap="round" stroke-linejoin="round"/>
<path d="M34.6074 35.4388L34.6203 48.2138L34.6407 68.9477M60.9944 29L34.6481 35.5546L8 29.3473L8.07035 44.3296L8.14811 60.944L34.6352 69L61 60.7647L60.9981 44.4622L60.9944 29Z" stroke="white" stroke-width="3" stroke-miterlimit="3.6" stroke-linecap="round" stroke-linejoin="round"/>
<path d="M34.5108 18L30.1352 19.4683L18.9053 23.2379L18.0216 23.5353L18 31.2555V31.3479L18.8694 31.6046L20.4015 32.0552L20.3692 47.3941L20.3333 64M34.5108 18.0166L34.6185 18.0536L34.6455 18.0628L38.845 19.4683L50.0426 23.2158L51 23.5353L50.9784 31.0985L50.1899 31.3571L49.8774 31.4605L48.5751 31.889L48.6146 46.3912L48.6613 63.9317" stroke="white" stroke-width="3" stroke-miterlimit="3.6" stroke-linecap="round" stroke-linejoin="round"/>
<path d="M34.5887 18.572C-5.01285 12.8693 26.2303 -15.9313 35 19" stroke="white" stroke-width="3" stroke-miterlimit="3.6" stroke-linecap="round"/>
<path d="M35.3904 18.572C73.0125 12.8693 43.3312 -15.9313 35 19" stroke="white" stroke-width="3" stroke-miterlimit="3.6" stroke-linecap="round"/>
</g>
<defs>
<clipPath id="clip0_1_137">
<rect width="69" height="69" fill="white"/>
</clipPath>
</defs>
</svg>
